{
	"asset":{
		"generator":"Khronos glTF Blender I/O v4.4.55",
		"version":"2.0"
	},
	"extensionsUsed":[
		"KHR_materials_unlit"
	],
	"scene":0,
	"scenes":[
		{
			"name":"Scene",
			"nodes":[
				6
			]
		}
	],
	"nodes":[
		{
			"mesh":0,
			"name":"Object_2"
		},
		{
			"mesh":1,
			"name":"Object_3"
		},
		{
			"mesh":2,
			"name":"Object_4"
		},
		{
			"mesh":3,
			"name":"Object_5"
		},
		{
			"mesh":4,
			"name":"Object_6"
		},
		{
			"children":[
				0,
				1,
				2,
				3,
				4
			],
			"name":"model.obj.cleaner.materialmerger.gles"
		},
		{
			"children":[
				5
			],
			"name":"Sketchfab_model",
			"rotation":[
				-0.4655875861644745,
				0.31779608130455017,
				-0.542588472366333,
				0.6227613687515259
			],
			"scale":[
				0.055142343044281006,
				0.055142343044281006,
				0.05514233931899071
			]
		}
	],
	"materials":[
		{
			"doubleSided":true,
			"extensions":{
				"KHR_materials_unlit":{}
			},
			"name":"model",
			"pbrMetallicRoughness":{
				"baseColorTexture":{
					"index":0
				},
				"metallicFactor":0,
				"roughnessFactor":0.9
			}
		}
	],
	"meshes":[
		{
			"name":"Object_0",
			"primitives":[
				{
					"attributes":{
						"POSITION":0,
						"NORMAL":1,
						"TEXCOORD_0":2
					},
					"indices":3,
					"material":0
				}
			]
		},
		{
			"name":"Object_1",
			"primitives":[
				{
					"attributes":{
						"POSITION":4,
						"NORMAL":5,
						"TEXCOORD_0":6
					},
					"indices":7,
					"material":0
				}
			]
		},
		{
			"name":"Object_2",
			"primitives":[
				{
					"attributes":{
						"POSITION":8,
						"NORMAL":9,
						"TEXCOORD_0":10
					},
					"indices":11,
					"material":0
				}
			]
		},
		{
			"name":"Object_3",
			"primitives":[
				{
					"attributes":{
						"POSITION":12,
						"NORMAL":13,
						"TEXCOORD_0":14
					},
					"indices":15,
					"material":0
				}
			]
		},
		{
			"name":"Object_4",
			"primitives":[
				{
					"attributes":{
						"POSITION":16,
						"NORMAL":17,
						"TEXCOORD_0":18
					},
					"indices":19,
					"material":0
				}
			]
		}
	],
	"textures":[
		{
			"sampler":0,
			"source":0
		}
	],
	"images":[
		{
			"mimeType":"image/jpeg",
			"name":"model_baseColor",
			"uri":"model_baseColor.jpg"
		}
	],
	"accessors":[
		{
			"bufferView":0,
			"componentType":5126,
			"count":65686,
			"max":[
				0.680308997631073,
				2.1569459438323975,
				2.215656042098999
			],
			"min":[
				-0.7838680148124695,
				-2.2509989738464355,
				-2.2526559829711914
			],
			"type":"VEC3"
		},
		{
			"bufferView":1,
			"componentType":5126,
			"count":65686,
			"type":"VEC3"
		},
		{
			"bufferView":2,
			"componentType":5126,
			"count":65686,
			"type":"VEC2"
		},
		{
			"bufferView":3,
			"componentType":5125,
			"count":332715,
			"type":"SCALAR"
		},
		{
			"bufferView":4,
			"componentType":5126,
			"count":65745,
			"max":[
				0.6753469705581665,
				2.152569055557251,
				2.21560001373291
			],
			"min":[
				-0.6669890284538269,
				-2.408864974975586,
				-2.247833013534546
			],
			"type":"VEC3"
		},
		{
			"bufferView":5,
			"componentType":5126,
			"count":65745,
			"type":"VEC3"
		},
		{
			"bufferView":6,
			"componentType":5126,
			"count":65745,
			"type":"VEC2"
		},
		{
			"bufferView":7,
			"componentType":5125,
			"count":312837,
			"type":"SCALAR"
		},
		{
			"bufferView":8,
			"componentType":5126,
			"count":65730,
			"max":[
				0.7521029710769653,
				2.408864974975586,
				2.1552278995513916
			],
			"min":[
				-0.5288810133934021,
				-2.403799057006836,
				-2.223236083984375
			],
			"type":"VEC3"
		},
		{
			"bufferView":9,
			"componentType":5126,
			"count":65730,
			"type":"VEC3"
		},
		{
			"bufferView":10,
			"componentType":5126,
			"count":65730,
			"type":"VEC2"
		},
		{
			"bufferView":11,
			"componentType":5125,
			"count":304233,
			"type":"SCALAR"
		},
		{
			"bufferView":12,
			"componentType":5126,
			"count":65975,
			"max":[
				0.7838680148124695,
				2.4084389209747314,
				2.2526559829711914
			],
			"min":[
				-0.5251479744911194,
				-2.3674728870391846,
				-2.224792003631592
			],
			"type":"VEC3"
		},
		{
			"bufferView":13,
			"componentType":5126,
			"count":65975,
			"type":"VEC3"
		},
		{
			"bufferView":14,
			"componentType":5126,
			"count":65975,
			"type":"VEC2"
		},
		{
			"bufferView":15,
			"componentType":5125,
			"count":269679,
			"type":"SCALAR"
		},
		{
			"bufferView":16,
			"componentType":5126,
			"count":7797,
			"max":[
				0.45871999859809875,
				2.1450860500335693,
				2.05456805229187
			],
			"min":[
				-0.45937299728393555,
				-2.4010961055755615,
				-2.139760971069336
			],
			"type":"VEC3"
		},
		{
			"bufferView":17,
			"componentType":5126,
			"count":7797,
			"type":"VEC3"
		},
		{
			"bufferView":18,
			"componentType":5126,
			"count":7797,
			"type":"VEC2"
		},
		{
			"bufferView":19,
			"componentType":5123,
			"count":18024,
			"type":"SCALAR"
		}
	],
	"bufferViews":[
		{
			"buffer":0,
			"byteLength":788232,
			"byteOffset":0,
			"target":34962
		},
		{
			"buffer":0,
			"byteLength":788232,
			"byteOffset":788232,
			"target":34962
		},
		{
			"buffer":0,
			"byteLength":525488,
			"byteOffset":1576464,
			"target":34962
		},
		{
			"buffer":0,
			"byteLength":1330860,
			"byteOffset":2101952,
			"target":34963
		},
		{
			"buffer":0,
			"byteLength":788940,
			"byteOffset":3432812,
			"target":34962
		},
		{
			"buffer":0,
			"byteLength":788940,
			"byteOffset":4221752,
			"target":34962
		},
		{
			"buffer":0,
			"byteLength":525960,
			"byteOffset":5010692,
			"target":34962
		},
		{
			"buffer":0,
			"byteLength":1251348,
			"byteOffset":5536652,
			"target":34963
		},
		{
			"buffer":0,
			"byteLength":788760,
			"byteOffset":6788000,
			"target":34962
		},
		{
			"buffer":0,
			"byteLength":788760,
			"byteOffset":7576760,
			"target":34962
		},
		{
			"buffer":0,
			"byteLength":525840,
			"byteOffset":8365520,
			"target":34962
		},
		{
			"buffer":0,
			"byteLength":1216932,
			"byteOffset":8891360,
			"target":34963
		},
		{
			"buffer":0,
			"byteLength":791700,
			"byteOffset":10108292,
			"target":34962
		},
		{
			"buffer":0,
			"byteLength":791700,
			"byteOffset":10899992,
			"target":34962
		},
		{
			"buffer":0,
			"byteLength":527800,
			"byteOffset":11691692,
			"target":34962
		},
		{
			"buffer":0,
			"byteLength":1078716,
			"byteOffset":12219492,
			"target":34963
		},
		{
			"buffer":0,
			"byteLength":93564,
			"byteOffset":13298208,
			"target":34962
		},
		{
			"buffer":0,
			"byteLength":93564,
			"byteOffset":13391772,
			"target":34962
		},
		{
			"buffer":0,
			"byteLength":62376,
			"byteOffset":13485336,
			"target":34962
		},
		{
			"buffer":0,
			"byteLength":36048,
			"byteOffset":13547712,
			"target":34963
		}
	],
	"samplers":[
		{
			"magFilter":9729,
			"minFilter":9987
		}
	],
	"buffers":[
		{
			"byteLength":13583760,
			"uri":"scene.bin"
		}
	]
}
